<svg width="180" height="180" viewBox="0 0 180 180" fill="none" xmlns="http://www.w3.org/2000/svg">
  <defs>
    <linearGradient id="bgGrad" x1="0%" y1="0%" x2="100%" y2="100%">
      <stop offset="0%" style="stop-color:#FF6F00;stop-opacity:1" />
      <stop offset="100%" style="stop-color:#FF8F00;stop-opacity:1" />
    </linearGradient>
  </defs>
  
  <rect width="180" height="180" rx="40" fill="url(#bgGrad)"/>
  
  <!-- Bowl -->
  <ellipse cx="90" cy="110" rx="45" ry="15" fill="#FFFFFF" opacity="0.9"/>
  <path d="M 45 110 Q 45 132 90 138 Q 135 132 135 110" fill="#F5F5F5" opacity="0.95"/>
  
  <!-- Noodles -->
  <path d="M 60 102 Q 65 98 70 102 Q 75 106 80 102 Q 85 98 90 102" 
        stroke="#FFE082" stroke-width="4" fill="none" stroke-linecap="round"/>
  <path d="M 90 102 Q 95 98 100 102 Q 105 106 110 102 Q 115 98 120 102" 
        stroke="#FFE082" stroke-width="4" fill="none" stroke-linecap="round"/>
  <path d="M 55 106 Q 65 102 75 106 Q 85 110 95 106" 
        stroke="#FFCA28" stroke-width="4" fill="none" stroke-linecap="round"/>
  <path d="M 85 106 Q 95 102 105 106 Q 115 110 125 106" 
        stroke="#FFCA28" stroke-width="4" fill="none" stroke-linecap="round"/>
  
  <!-- Steam -->
  <path d="M 65 90 Q 63 80 65 70 Q 67 60 65 50" 
        stroke="#FFFFFF" stroke-width="3" fill="none" stroke-linecap="round" opacity="0.7"/>
  <path d="M 90 86 Q 88 76 90 66 Q 92 56 90 46" 
        stroke="#FFFFFF" stroke-width="3.5" fill="none" stroke-linecap="round" opacity="0.8"/>
  <path d="M 115 90 Q 117 80 115 70 Q 113 60 115 50" 
        stroke="#FFFFFF" stroke-width="3" fill="none" stroke-linecap="round" opacity="0.7"/>
  
  <!-- Chopsticks -->
  <rect x="105" y="78" width="3.5" height="45" fill="#CD853F" rx="1.75" transform="rotate(-25 107 100)"/>
  <rect x="110" y="82" width="3.5" height="45" fill="#DEB887" rx="1.75" transform="rotate(-20 112 104)"/>
</svg>
